<?xml version="1.0" encoding="UTF-8" standalone="no"?>
<!-- Created with Inkscape (http://www.inkscape.org/) -->

<svg
   width="210mm"
   height="297mm"
   viewBox="0 0 210 297"
   version="1.1"
   id="svg5"
   xml:space="preserve"
   inkscape:version="1.2.2 (b0a8486541, 2022-12-01)"
   sodipodi:docname="drawing BLUE LOGO.svg"
   xmlns:inkscape="http://www.inkscape.org/namespaces/inkscape"
   xmlns:sodipodi="http://sodipodi.sourceforge.net/DTD/sodipodi-0.dtd"
   xmlns="http://www.w3.org/2000/svg"
   xmlns:svg="http://www.w3.org/2000/svg"><sodipodi:namedview
     id="namedview7"
     pagecolor="#ffffff"
     bordercolor="#000000"
     borderopacity="0.25"
     inkscape:showpageshadow="2"
     inkscape:pageopacity="0.0"
     inkscape:pagecheckerboard="0"
     inkscape:deskcolor="#d1d1d1"
     inkscape:document-units="mm"
     showgrid="false"
     inkscape:zoom="0.69664703"
     inkscape:cx="628.72586"
     inkscape:cy="426.32781"
     inkscape:window-width="1920"
     inkscape:window-height="1011"
     inkscape:window-x="0"
     inkscape:window-y="0"
     inkscape:window-maximized="1"
     inkscape:current-layer="g4" /><defs
     id="defs2" /><g
     inkscape:label="Layer 1"
     inkscape:groupmode="layer"
     id="layer1"><g
       transform="matrix(0.01966498,0,0,-0.01998607,-42.006983,252.38154)"
       fill="#000000"
       stroke="none"
       id="g4"
       style="fill:#000000;fill-opacity:0.96"><path
         id="path1"
         style="fill:#006680;fill-opacity:0.96"
         d="M 6249.9896 12305.988 C 5267.9906 12306.988 4440.0019 12303.99 4410.0019 12299.99 C 4192.0022 12266.99 4002.009 12101.998 3924.0091 11878.998 L 3894.9977 11794.992 L 3892.002 7696.0042 L 3890.0048 3596.0085 L 3910.0027 3520.9996 C 3970.0026 3302.9998 4127.988 3139.9887 4345.9877 3072.9888 C 4402.9877 3055.9888 4526.9917 3054.9928 7489.9888 3054.9928 C 10398.986 3054.9928 10579.008 3055.9888 10640.008 3072.9888 C 10813.007 3118.9887 10955.995 3233.0044 11036.995 3386.0042 C 11115.995 3536.0041 11109.997 3267.997 11109.997 6406.9939 C 11109.997 8350.9919 11107.012 9242.9959 11099.012 9296.9958 C 11072.012 9492.9956 10935.011 9649.996 10730.011 9715.996 C 10680.011 9731.9959 10611.992 9733.9905 10039.993 9739.9905 L 9405.0013 9745.9892 L 9323.0127 9773.0089 C 9105.0129 9846.0089 8904.9992 10064.009 8832.9992 10309.008 C 8818.9993 10357.008 8816.0056 10449.001 8810.0056 10955 C 8804.0056 11473 8800.9872 11551.992 8785.9872 11603.992 C 8746.9872 11735.992 8676.0034 11842.001 8534.0035 11981.001 C 8356.0037 12153.001 8234.0035 12238.001 8090.0036 12286.001 C 8037.0036 12304.001 7960.9879 12304.988 6249.9896 12305.988 z M 7363.4845 11424.937 C 7441.3139 11424.937 7505.3903 11405.592 7555.711 11366.916 C 7606.0318 11329.081 7643.2929 11275.281 7667.4468 11205.496 C 7692.2717 11136.551 7704.6833 11055.412 7704.6833 10962.085 C 7704.6833 10892.3 7697.619 10828.827 7683.5292 10771.654 C 7670.1104 10715.321 7649.3239 10666.558 7621.1443 10625.359 C 7593.6356 10584.161 7558.0652 10552.612 7514.454 10530.751 C 7471.5136 10508.891 7420.8579 10497.966 7362.4859 10497.966 C 7304.1139 10497.966 7253.1306 10508.891 7209.5193 10530.751 C 7166.579 10553.453 7131.0086 10585.002 7102.829 10625.359 C 7075.3204 10666.558 7054.5339 10715.747 7040.4441 10772.921 C 7027.0252 10830.094 7020.3148 10893.567 7020.3148 10963.352 C 7020.3148 11056.679 7032.3988 11137.818 7056.5527 11206.762 C 7081.3776 11275.707 7118.9401 11329.081 7169.2608 11366.916 C 7220.2525 11405.592 7284.9842 11424.937 7363.4845 11424.937 z M 4439.8542 11411.078 L 4669.3172 11411.078 C 4761.9073 11411.078 4829.339 11385.844 4871.6084 11335.397 C 4914.5487 11285.791 4936.0168 11217.256 4936.0168 11129.814 C 4936.0168 11090.297 4931.3248 11052.459 4921.9316 11016.306 C 4912.5384 10980.992 4896.7715 10949.043 4874.6304 10920.456 C 4853.1603 10892.711 4824.6542 10870.86 4789.0942 10854.885 C 4753.5343 10838.91 4709.589 10830.916 4657.2555 10830.916 L 4591.8222 10830.916 L 4591.8222 10510.584 L 4439.8542 10510.584 L 4439.8542 11411.078 z M 4981.3208 11411.078 L 5146.3754 11411.078 L 5295.3214 11040.274 L 5445.266 11411.078 L 5609.3221 11411.078 L 5370.793 10861.194 L 5370.793 10510.584 L 5219.8236 10510.584 L 5219.8236 10854.885 L 4981.3208 11411.078 z M 5629.4514 11411.078 L 6171.8902 11411.078 L 6171.8902 11252.166 L 5976.6679 11252.166 L 5976.6679 10510.584 L 5824.6999 10510.584 L 5824.6999 11252.166 L 5629.4514 11252.166 L 5629.4514 11411.078 z M 6282.6011 11411.078 L 6434.5691 11411.078 L 6434.5691 11057.934 L 6719.4008 11057.934 L 6719.4008 11411.078 L 6871.3688 11411.078 L 6871.3688 10510.584 L 6719.4008 10510.584 L 6719.4008 10899.022 L 6434.5691 10899.022 L 6434.5691 10510.584 L 6282.6011 10510.584 L 6282.6011 11411.078 z M 7853.6293 11411.078 L 8045.8559 11411.078 L 8357.8331 10736.334 L 8360.8551 10736.334 L 8358.8317 10819.566 C 8358.1607 10847.311 8357.1516 10874.65 8355.8097 10901.556 L 8353.8125 10984.787 L 8353.8125 11411.078 L 8490.6704 11411.078 L 8490.6704 10510.584 L 8297.4453 10510.584 L 7984.4432 11191.611 L 7980.4226 11191.611 C 7981.7645 11163.024 7982.7737 11134.458 7983.4447 11105.871 C 7984.7865 11077.285 7985.7957 11048.693 7986.4667 11020.106 C 7987.8086 10991.52 7988.8177 10962.928 7989.4887 10934.341 L 7989.4887 10510.584 L 7853.6293 10510.584 L 7853.6293 11411.078 z M 7363.4845 11266.025 C 7320.5442 11266.025 7285.6553 11253.847 7258.8176 11229.464 C 7231.9799 11205.081 7212.2026 11170.175 7199.4547 11124.772 C 7186.7068 11079.37 7180.324 11025.144 7180.324 10962.085 C 7180.324 10899.026 7186.7068 10844.8 7199.4547 10799.398 C 7212.2026 10753.995 7231.9799 10719.089 7258.8176 10694.706 C 7285.6553 10670.323 7320.2165 10658.145 7362.4859 10658.145 C 7406.0972 10658.145 7440.9861 10670.323 7467.1528 10694.706 C 7493.9905 10719.089 7513.4402 10753.995 7525.5172 10799.398 C 7538.2651 10844.8 7544.6478 10899.026 7544.6478 10962.085 C 7544.6478 11057.094 7530.5718 11131.517 7502.3922 11185.328 C 7474.2126 11239.138 7427.895 11266.025 7363.4845 11266.025 z M 4591.8222 11254.674 L 4591.8222 10987.321 L 4642.1454 10987.321 C 4670.9959 10987.321 4695.8192 10991.931 4716.6184 11001.18 C 4737.4176 11010.428 4753.5383 11025.137 4764.9444 11045.316 C 4776.3504 11065.495 4782.0516 11091.556 4782.0516 11123.505 C 4782.0516 11168.067 4772.3136 11200.869 4752.8563 11221.888 C 4733.399 11243.749 4702.8745 11254.674 4661.2761 11254.674 L 4591.8222 11254.674 z M 8200.005 9884.0097 C 8297.0049 9904.0097 8420.0093 9896.9963 8530.0092 9866.9963 C 8792.009 9793.9964 8937.0056 9747.0107 8958.0056 9727.0107 C 8980.0056 9707.0107 8981.0077 9699.0115 8975.0077 9647.0116 C 8972.0077 9615.0116 8965.9985 9581.9936 8962.9985 9573.9936 C 8953.9985 9549.9936 8910.0119 9533.0091 8787.012 9505.0092 C 8722.0121 9491.0092 8615.0113 9460.9898 8547.0113 9437.9898 C 8396.0115 9387.9899 8330.012 9385.01 8195.0121 9425.01 C 8077.0122 9460.01 8032.9885 9463.0039 7859.9887 9452.0039 C 7684.9889 9439.0039 7658.9922 9431.9956 7579.9923 9373.9957 C 7477.9924 9298.9958 7436.0115 9214.0096 7437.0115 9083.0097 C 7438.0115 8934.0099 7538.9924 8795.9926 7690.9923 8738.9926 C 7716.9923 8728.9927 7796.0051 8714.0001 7867.005 8706.0001 C 8096.0048 8679.0001 8239.9959 8617.9971 8372.9957 8489.9972 C 8538.9956 8331.9974 8620.0128 8145.9874 8620.0128 7921.9876 C 8620.0128 7801.9878 8607.0063 7728.0107 8569.0064 7629.0108 C 8477.0065 7391.011 8267.9877 7206.0067 8026.988 7151.0067 C 7951.9881 7133.0068 7879.9938 7130.9954 7152.9945 7124.9954 L 6359.991 7117.9883 L 6359.991 7334.9996 L 6359.991 7552.0109 L 7143.0087 7549.0116 L 7925.0015 7545.0039 L 7991.0128 7576.0055 C 8080.0128 7619.0055 8132.9923 7669.0012 8171.9922 7748.0011 C 8202.9922 7810.001 8204.9979 7822.0066 8204.9979 7915.0065 C 8204.9979 8003.0064 8202.01 8022.0055 8178.01 8072.0055 C 8119.01 8198.0053 8004.9957 8278.0057 7854.9958 8300.0057 C 7614.9961 8334.0056 7555.9979 8348.9931 7464.998 8393.993 C 7268.9982 8491.9929 7129.9895 8656.9973 7063.9895 8871.9971 C 7029.9896 8977.997 7025.0052 9166.9936 7053.0051 9268.9935 C 7129.0051 9548.9933 7329.9954 9753.0025 7614.9951 9840.0024 C 7636.9951 9847.0024 7758.9988 9855.9977 7889.9986 9860.9977 C 8026.9985 9864.9977 8156.005 9875.0097 8200.005 9884.0097 z M 6070.0088 8359.9921 L 6070.0088 8125.9933 L 6070.0088 7893.0028 L 5947.9982 7888.9951 C 5879.9983 7886.9951 5658.9888 7884.9874 5454.989 7884.9874 L 5084.9891 7884.9874 L 5081.9933 8116.9953 L 5079.9962 8353.8383 L 5231.9905 8353.0109 C 5315.9904 8354.0109 5835.7313 8357.2339 6024.7311 8358.2339 L 6070.0088 8359.9921 z M 5564.9904 7582.0041 C 6098.9899 7585.0041 6076.0046 7585.988 6073.0046 7576.988 C 6071.0046 7572.988 6070.0088 7465.9898 6070.0088 7339.9899 L 6070.0088 7109.9988 L 5577.9982 7111.9897 L 5084.9891 7114.989 L 5084.9891 7346.9969 L 5084.9891 7579.9874 L 5564.9904 7582.0041 z M 5584.9883 6579.9979 L 6079.9946 6579.9979 L 6077.9975 6342.9997 L 6075.0017 6104.9931 L 5579.9954 6104.9931 L 5084.9891 6104.9931 L 5081.9933 6329.994 C 5080.9933 6452.9939 5081.9905 6559.9922 5083.9905 6566.9922 C 5087.9905 6576.9922 5192.9887 6579.9979 5584.9883 6579.9979 z M 6359.991 6579.9979 L 6854.9974 6579.9979 L 7350.0037 6579.9979 L 7350.0037 6340.0004 L 7350.0037 6100.0029 L 6854.9974 6100.0029 L 6359.991 6100.0029 L 6359.991 6340.0004 L 6359.991 6579.9979 z M 7619.988 6579.9979 L 8114.9944 6579.9979 L 8610.0007 6579.9979 L 8610.0007 6340.0004 L 8610.0007 6100.0029 L 8114.9944 6100.0029 L 7619.988 6100.0029 L 7619.988 6340.0004 L 7619.988 6579.9979 z M 8889.9971 6579.9979 L 9389.9963 6579.9979 L 9889.9956 6579.9979 L 9887.9984 6342.9997 L 9885.0027 6104.9931 L 9387.9992 6101.9938 L 8889.9971 6100.0029 L 8889.9971 6340.0004 L 8889.9971 6579.9979 z M 5079.9962 5809.9995 L 5578.9968 5809.9995 L 6078.996 5809.9995 L 6076.9989 5573.0013 L 6075.0017 5334.9948 L 5579.9954 5334.9948 L 5084.9891 5334.9948 L 5081.9933 5573.0013 L 5079.9962 5809.9995 z M 6359.991 5809.9995 L 6854.9974 5809.9995 L 7350.0037 5809.9995 L 7350.0037 5570.002 L 7350.0037 5330.0045 L 6854.9974 5330.0045 L 6359.991 5330.0045 L 6359.991 5570.002 L 6359.991 5809.9995 z M 8121.0121 5809.9995 L 8610.0007 5809.9995 L 8610.0007 5570.002 L 8610.0007 5330.0045 L 8121.0121 5331.9954 L 7630.9987 5334.9948 L 7625.0072 5562.995 C 7622.0072 5687.9948 7622.0072 5795.0015 7625.0072 5801.0015 C 7629.0072 5806.0015 7823.0124 5809.9995 8121.0121 5809.9995 z M 8889.9971 5809.9995 L 9389.9963 5809.9995 L 9889.9956 5809.9995 L 9889.9956 5570.002 L 9889.9956 5330.0045 L 9389.9963 5330.0045 L 8889.9971 5330.0045 L 8889.9971 5570.002 L 8889.9971 5809.9995 z M 5576.9997 5029.9947 L 6076.0003 5029.9947 L 6078.996 4789.9973 L 6081.9918 4549.9998 L 5585.9869 4549.9998 L 5090.0082 4549.9998 L 5090.0082 4773.9923 C 5090.0082 4896.9921 5086.9905 5004.9897 5083.9905 5013.9897 C 5077.9905 5027.9897 5126.0001 5029.9947 5576.9997 5029.9947 z M 6359.991 5029.9947 L 6854.9974 5029.9947 L 7350.0037 5029.9947 L 7350.0037 4789.9973 L 7350.0037 4549.9998 L 6854.9974 4549.9998 L 6359.991 4549.9998 L 6359.991 4789.9973 L 6359.991 5029.9947 z M 7619.988 5029.9947 L 8114.9944 5029.9947 L 8610.0007 5029.9947 L 8610.0007 4789.9973 L 8610.0007 4549.9998 L 8117.9901 4551.9907 L 7625.0072 4554.99 L 7622.0115 4792.9966 L 7619.988 5029.9947 z M 8889.9971 5029.9947 L 9387.9992 5028.0038 L 9885.0027 5025.0045 L 9885.0027 4789.9973 L 9885.0027 4554.99 L 9387.9992 4551.9907 L 8889.9971 4549.9998 L 8889.9971 4789.9973 L 8889.9971 5029.9947 z " /><path
         d="m 8966,11928 c 208,-211 567,-572 796,-803 229,-231 598,-604 820,-829 l 403,-409 5,414 5,414 231,3 232,2 6,31 c 3,18 6,375 6,795 v 764 H 10028 8586 Z m 2182,-395 -3,-228 -72,-3 -73,-3 v 156 155 h -185 -185 v 75 75 h 260 260 z m -335,-383 c -1,-74 -2,-201 -2,-282 l -1,-148 h -85 -85 v 195 195 h -275 -275 v 83 c 0,46 3,87 7,90 4,4 167,6 362,5 l 356,-3 z"
         id="path4"
         style="fill:#006680;fill-opacity:0.96" /></g></g></svg>
